<svg width="100" height="100" viewBox="0 0 100 100" fill="none" xmlns="http://www.w3.org/2000/svg">
<rect width="100" height="100" fill="#155DFC"/>
<path d="M50 50C47.25 50 44.8958 49.0208 42.9375 47.0625C40.9792 45.1042 40 42.75 40 40C40 37.25 40.9792 34.8958 42.9375 32.9375C44.8958 30.9792 47.25 30 50 30C52.75 30 55.1042 30.9792 57.0625 32.9375C59.0208 34.8958 60 37.25 60 40C60 42.75 59.0208 45.1042 57.0625 47.0625C55.1042 49.0208 52.75 50 50 50ZM30 70V63C30 61.5833 30.3646 60.2812 31.0938 59.0938C31.8229 57.9062 32.7917 57 34 56.375C36.5833 55.0833 39.2083 54.1146 41.875 53.4688C44.5417 52.8229 47.25 52.5 50 52.5C52.75 52.5 55.4583 52.8229 58.125 53.4688C60.7917 54.1146 63.4167 55.0833 66 56.375C67.2083 57 68.1771 57.9062 68.9062 59.0938C69.6354 60.2812 70 61.5833 70 63V70H30ZM35 65H65V63C65 62.5417 64.8854 62.125 64.6562 61.75C64.4271 61.375 64.125 61.0833 63.75 60.875C61.5 59.75 59.2292 58.9062 56.9375 58.3438C54.6458 57.7812 52.3333 57.5 50 57.5C47.6667 57.5 45.3542 57.7812 43.0625 58.3438C40.7708 58.9062 38.5 59.75 36.25 60.875C35.875 61.0833 35.5729 61.375 35.3438 61.75C35.1146 62.125 35 62.5417 35 63V65ZM50 45C51.375 45 52.5521 44.5104 53.5312 43.5312C54.5104 42.5521 55 41.375 55 40C55 38.625 54.5104 37.4479 53.5312 36.4688C52.5521 35.4896 51.375 35 50 35C48.625 35 47.4479 35.4896 46.4688 36.4688C45.4896 37.4479 45 38.625 45 40C45 41.375 45.4896 42.5521 46.4688 43.5312C47.4479 44.5104 48.625 45 50 45Z" fill="#E3E3E3"/>
</svg>
