<svg width="605" height="200" viewBox="0 0 605 200" fill="none" xmlns="http://www.w3.org/2000/svg">
<g clip-path="url(#clip0_2_6)">
<path d="M108.789 84.2188L8.98437 183.984C5.3125 187.656 5.3125 193.594 8.98437 197.227C12.6562 200.859 18.5938 200.898 22.2266 197.227L51.4453 168.008C54.3359 169.805 57.4219 171.211 60.7422 172.109C78.2422 176.875 105.469 177.539 132.031 159.922C136.797 156.758 134.297 150 128.594 150H122.305C120.312 150 118.711 148.398 118.711 146.406C118.711 144.805 119.766 143.437 121.25 142.969L159.414 131.523C160.742 131.133 161.914 130.312 162.695 129.141C164.414 126.641 166.055 124.102 167.617 121.484C170.039 117.461 167.031 112.5 162.344 112.5H147.266C145.273 112.5 143.672 110.898 143.672 108.906C143.672 107.305 144.727 105.937 146.211 105.469L177.812 95.9766C179.609 95.4297 181.094 94.1016 181.797 92.3437C193.164 63.6719 198.359 33.6328 199.961 14.375C200.273 10.5078 198.789 6.71875 196.055 3.98438C193.32 1.25 189.531 -0.234373 185.664 0.0781265C152.93 2.73438 89.2578 15.8203 53.6719 51.4063C22.3828 82.6953 22.1484 118.086 27.8516 139.219C28.6719 142.305 32.5391 142.969 34.8047 140.703L99.0625 76.4844C101.484 74.0625 105.469 74.0625 107.891 76.4844C110 78.5938 110.273 81.7969 108.75 84.2188H108.789Z" fill="white"/>
</g>
<path d="M219.091 146V52.9091H255.818C262.879 52.9091 268.894 54.2576 273.864 56.9545C278.833 59.6212 282.621 63.3333 285.227 68.0909C287.864 72.8182 289.182 78.2727 289.182 84.4545C289.182 90.6364 287.848 96.0909 285.182 100.818C282.515 105.545 278.652 109.227 273.591 111.864C268.561 114.5 262.47 115.818 255.318 115.818H231.909V100.045H252.136C255.924 100.045 259.045 99.3939 261.5 98.0909C263.985 96.7576 265.833 94.9242 267.045 92.5909C268.288 90.2273 268.909 87.5151 268.909 84.4545C268.909 81.3636 268.288 78.6667 267.045 76.3636C265.833 74.0303 263.985 72.2273 261.5 70.9545C259.015 69.6515 255.864 69 252.045 69H238.773V146H219.091ZM332.023 147.364C324.962 147.364 318.856 145.864 313.705 142.864C308.583 139.833 304.629 135.621 301.841 130.227C299.053 124.803 297.659 118.515 297.659 111.364C297.659 104.152 299.053 97.8485 301.841 92.4545C304.629 87.0303 308.583 82.8182 313.705 79.8182C318.856 76.7879 324.962 75.2727 332.023 75.2727C339.083 75.2727 345.174 76.7879 350.295 79.8182C355.447 82.8182 359.417 87.0303 362.205 92.4545C364.992 97.8485 366.386 104.152 366.386 111.364C366.386 118.515 364.992 124.803 362.205 130.227C359.417 135.621 355.447 139.833 350.295 142.864C345.174 145.864 339.083 147.364 332.023 147.364ZM332.114 132.364C335.326 132.364 338.008 131.455 340.159 129.636C342.311 127.788 343.932 125.273 345.023 122.091C346.144 118.909 346.705 115.288 346.705 111.227C346.705 107.167 346.144 103.545 345.023 100.364C343.932 97.1818 342.311 94.6667 340.159 92.8182C338.008 90.9697 335.326 90.0455 332.114 90.0455C328.871 90.0455 326.144 90.9697 323.932 92.8182C321.75 94.6667 320.098 97.1818 318.977 100.364C317.886 103.545 317.341 107.167 317.341 111.227C317.341 115.288 317.886 118.909 318.977 122.091C320.098 125.273 321.75 127.788 323.932 129.636C326.144 131.455 328.871 132.364 332.114 132.364ZM437.068 96.0909L419.341 97.1818C419.038 95.6667 418.386 94.303 417.386 93.0909C416.386 91.8485 415.068 90.8636 413.432 90.1364C411.826 89.3788 409.902 89 407.659 89C404.659 89 402.129 89.6364 400.068 90.9091C398.008 92.1515 396.977 93.8182 396.977 95.9091C396.977 97.5758 397.644 98.9848 398.977 100.136C400.311 101.288 402.598 102.212 405.841 102.909L418.477 105.455C425.265 106.848 430.326 109.091 433.659 112.182C436.992 115.273 438.659 119.333 438.659 124.364C438.659 128.939 437.311 132.955 434.614 136.409C431.947 139.864 428.28 142.561 423.614 144.5C418.977 146.409 413.629 147.364 407.568 147.364C398.326 147.364 390.962 145.439 385.477 141.591C380.023 137.712 376.826 132.439 375.886 125.773L394.932 124.773C395.508 127.591 396.902 129.742 399.114 131.227C401.326 132.682 404.159 133.409 407.614 133.409C411.008 133.409 413.735 132.758 415.795 131.455C417.886 130.121 418.947 128.409 418.977 126.318C418.947 124.561 418.205 123.121 416.75 122C415.295 120.848 413.053 119.97 410.023 119.364L397.932 116.955C391.114 115.591 386.038 113.227 382.705 109.864C379.402 106.5 377.75 102.212 377.75 97C377.75 92.5151 378.962 88.6515 381.386 85.4091C383.841 82.1667 387.28 79.6667 391.705 77.9091C396.159 76.1515 401.371 75.2727 407.341 75.2727C416.159 75.2727 423.098 77.1364 428.159 80.8636C433.25 84.5909 436.22 89.6667 437.068 96.0909ZM487.989 76.1818V90.7273H445.943V76.1818H487.989ZM455.489 59.4545H474.852V124.545C474.852 126.333 475.125 127.727 475.67 128.727C476.216 129.697 476.973 130.379 477.943 130.773C478.943 131.167 480.095 131.364 481.398 131.364C482.307 131.364 483.216 131.288 484.125 131.136C485.034 130.955 485.731 130.818 486.216 130.727L489.261 145.136C488.292 145.439 486.928 145.788 485.17 146.182C483.413 146.606 481.277 146.864 478.761 146.955C474.095 147.136 470.004 146.515 466.489 145.091C463.004 143.667 460.292 141.455 458.352 138.455C456.413 135.455 455.458 131.667 455.489 127.091V59.4545ZM521.466 52.9091V146H502.102V52.9091H521.466ZM548.932 172.182C546.477 172.182 544.174 171.985 542.023 171.591C539.902 171.227 538.144 170.758 536.75 170.182L541.114 155.727C543.386 156.424 545.432 156.803 547.25 156.864C549.098 156.924 550.689 156.5 552.023 155.591C553.386 154.682 554.492 153.136 555.341 150.955L556.477 148L531.432 76.1818H551.795L566.25 127.455H566.977L581.568 76.1818H602.068L574.932 153.545C573.629 157.303 571.856 160.576 569.614 163.364C567.402 166.182 564.598 168.348 561.205 169.864C557.811 171.409 553.72 172.182 548.932 172.182Z" fill="white"/>
<defs>
<clipPath id="clip0_2_6">
<rect width="200" height="200" fill="white"/>
</clipPath>
</defs>
</svg>
